<svg xmlns="http://www.w3.org/2000/svg" xmlns:svg="http://www.w3.org/2000/svg" id="svg97" width="712.364" height="541.322" overflow="hidden" version="1.1"><defs id="defs97"><clipPath id="clipPath97" clipPathUnits="userSpaceOnUse"><rect style="fill:none;stroke:#d8d3da" id="rect98" width="712.364" height="541.322" x="131.571" y="114.655"/></clipPath></defs><g id="g97" clip-path="url(#clipPath97)" transform="translate(-131.57121,-114.65492)"><rect id="rect1" width="1280" height="720" x="0" y="0" fill="#fff"/><rect id="rect2" width="187" height="99" x="364.5" y="356.5" fill="none" stroke="#ffc000" stroke-dasharray="4 1.333" stroke-linecap="square" stroke-miterlimit="8" stroke-width="1.333"/><rect id="rect3" width="174" height="98" x="600.5" y="477.5" fill="none" stroke="#7030a0" stroke-dasharray="4 1.333" stroke-linecap="square" stroke-miterlimit="8" stroke-width="1.333"/><rect id="rect4" width="45" height="66" x="609.5" y="496.5" fill="none" stroke="#7030a0" stroke-miterlimit="8" stroke-width="1.333"/><path id="path4" fill="none" fill-rule="evenodd" stroke="#7030a0" stroke-miterlimit="8" stroke-width="1.333" d="m 620.5,522.5 h 20.369"/><path id="path5" fill="none" fill-rule="evenodd" stroke="#7030a0" stroke-miterlimit="8" stroke-width="1.333" d="m 620.5,536.5 h 20.369"/><rect id="rect5" width="46" height="67" x="664.5" y="378.5" fill="none" stroke="#ffc000" stroke-miterlimit="8" stroke-width="1.333"/><path id="path6" fill="none" fill-rule="evenodd" stroke="#ffc000" stroke-miterlimit="8" stroke-width="1.333" d="m 676.5,405.5 h 20.631"/><path id="path7" fill="none" fill-rule="evenodd" stroke="#ffc000" stroke-miterlimit="8" stroke-width="1.333" d="m 676.5,419.5 h 20.631"/><text id="text7" font-family="Calibri, Calibri_MSFontService, sans-serif" font-size="11" font-weight="400" transform="translate(602.552,486)">BC system_application</text><text id="text8" font-family="Calibri, Calibri_MSFontService, sans-serif" font-size="11" font-weight="400" transform="translate(703.052,486)">–</text><text id="text9" font-family="Calibri, Calibri_MSFontService, sans-serif" font-size="11" font-weight="400" transform="translate(710.718,486)">v24</text><rect id="rect9" width="176" height="99" x="600.5" y="356.5" fill="none" stroke="#ffc000" stroke-dasharray="4 1.333" stroke-linecap="square" stroke-miterlimit="8" stroke-width="1.333"/><path id="path9" fill="none" fill-rule="evenodd" stroke="#00b0f0" stroke-miterlimit="8" stroke-width="1.333" d="m 676.5,431.5 h 20.631"/><text id="text10" font-family="Calibri, Calibri_MSFontService, sans-serif" font-size="11" font-weight="400" transform="translate(671.265,392)">TableB</text><text id="text11" font-family="Calibri, Calibri_MSFontService, sans-serif" font-size="11" font-weight="400" transform="translate(616.013,507)">TableA</text><path id="path11" fill="none" fill-rule="evenodd" stroke="#00b0f0" stroke-miterlimit="8" stroke-width="1.333" d="m 620.5,548.5 h 20.631"/><text id="text12" font-family="Calibri, Calibri_MSFontService, sans-serif" font-size="11" font-weight="400" transform="translate(722.18,301)">TableExtC</text><rect id="rect12" width="46" height="67" x="721.5" y="378.5" fill="none" stroke="#ffc000" stroke-miterlimit="8" stroke-width="1.333"/><path id="path12" fill="none" fill-rule="evenodd" stroke="#ffc000" stroke-miterlimit="8" stroke-width="1.333" d="m 732.5,405.5 h 20.631"/><path id="path13" fill="none" fill-rule="evenodd" stroke="#ffc000" stroke-miterlimit="8" stroke-width="1.333" d="m 732.5,419.5 h 20.631"/><text id="text13" font-family="Calibri, Calibri_MSFontService, sans-serif" font-size="11" font-weight="400" transform="translate(729.344,391)">TableC</text><path id="path14" fill="none" fill-rule="evenodd" stroke="#00b0f0" stroke-miterlimit="8" stroke-width="1.333" d="m 733.5,431.5 h 20.631"/><path id="path15" fill="#a6a6a6" d="m 686.833,455.5 v 14.604 h -0.666 V 455.5 Z m 3.667,13.271 -4,8 -4,-8 z"/><rect id="rect15" width="187" height="125" x="366.5" y="117.5" fill="none" stroke="#00b0f0" stroke-dasharray="4 1.333" stroke-linecap="square" stroke-miterlimit="8" stroke-width="1.333"/><rect id="rect16" width="46" height="66" x="382.5" y="137.5" fill="none" stroke="#7030a0" stroke-miterlimit="8" stroke-width="1.333"/><path id="path16" fill="none" fill-rule="evenodd" stroke="#7030a0" stroke-miterlimit="8" stroke-width="1.333" d="m 394.5,163.5 h 20.369"/><path id="path17" fill="none" fill-rule="evenodd" stroke="#7030a0" stroke-miterlimit="8" stroke-width="1.333" d="m 394.5,177.5 h 20.369"/><rect id="rect17" width="46" height="66" x="439.5" y="137.5" fill="none" stroke="#ffc000" stroke-miterlimit="8" stroke-width="1.333"/><path id="path18" fill="none" fill-rule="evenodd" stroke="#ffc000" stroke-miterlimit="8" stroke-width="1.333" d="m 451.5,164.5 h 20.631"/><path id="path19" fill="none" fill-rule="evenodd" stroke="#ffc000" stroke-miterlimit="8" stroke-width="1.333" d="m 451.5,177.5 h 20.631"/><text id="text19" font-family="Calibri, Calibri_MSFontService, sans-serif" font-size="11" font-weight="400" transform="translate(369.044,127)">table_migration_ext</text><text id="text20" font-family="Calibri, Calibri_MSFontService, sans-serif" font-size="11" font-weight="400" transform="translate(462.211,127)">-</text><text id="text21" font-family="Calibri, Calibri_MSFontService, sans-serif" font-size="11" font-weight="400" transform="translate(470.211,127)">v1</text><text id="text22" font-family="Calibri, Calibri_MSFontService, sans-serif" font-size="11" font-weight="400" transform="translate(389.02,149)">TableA</text><text id="text23" font-family="Calibri, Calibri_MSFontService, sans-serif" font-size="11" font-weight="400" transform="translate(445.967,151)">TableB</text><rect id="rect23" width="46" height="65" x="494.5" y="138.5" fill="none" stroke="#ffc000" stroke-miterlimit="8" stroke-width="1.333"/><path id="path23" fill="none" fill-rule="evenodd" stroke="#ffc000" stroke-miterlimit="8" stroke-width="1.333" d="m 506.5,164.5 h 20.631"/><path id="path24" fill="none" fill-rule="evenodd" stroke="#ffc000" stroke-miterlimit="8" stroke-width="1.333" d="m 506.5,177.5 h 20.631"/><path id="path25" fill="none" fill-rule="evenodd" stroke="#00b050" stroke-miterlimit="8" stroke-width="1.333" d="m 506.5,190.5 h 20.631"/><text id="text25" font-family="Calibri, Calibri_MSFontService, sans-serif" font-size="11" font-weight="400" transform="translate(501.089,150)">TableC</text><text id="text26" font-family="Calibri, Calibri_MSFontService, sans-serif" font-size="11" font-weight="400" transform="translate(603.311,232)">migration.json</text><path id="path26" fill="#00b0f0" d="M 0.308173,-0.127044 134.833,326.191 134.217,326.446 -0.308173,0.127044 Z M 137.715,323.562 l -0.649,8.92 -6.747,-5.871 z" transform="matrix(1,0,0,-1,221.5,470.982)"/><text id="text27" font-family="Calibri, Calibri_MSFontService, sans-serif" font-size="11" font-weight="400" transform="translate(382.14,216)">Table</text><text id="text28" font-family="Calibri, Calibri_MSFontService, sans-serif" font-size="11" font-weight="400" transform="translate(408.307,216)">objects</text><text id="text29" font-family="Calibri, Calibri_MSFontService, sans-serif" font-size="11" font-weight="400" transform="translate(441.974,216)">only</text><text id="text30" font-family="Calibri, Calibri_MSFontService, sans-serif" font-size="11" font-weight="400" transform="translate(462.974,216)">and</text><text id="text31" font-family="Calibri, Calibri_MSFontService, sans-serif" font-size="11" font-weight="400" transform="translate(481.807,216)">without</text><text id="text32" font-family="Calibri, Calibri_MSFontService, sans-serif" font-size="11" font-weight="400" transform="translate(518.307,216)">code</text><rect id="rect32" width="175" height="123" x="600.5" y="118.5" fill="none" stroke="#00b0f0" stroke-dasharray="4 1.333" stroke-linecap="square" stroke-miterlimit="8" stroke-width="1.333"/><rect id="rect33" width="187" height="98" x="363.5" y="477.5" fill="none" stroke="#7030a0" stroke-dasharray="4 1.333" stroke-linecap="square" stroke-miterlimit="8" stroke-width="1.333"/><text id="text33" font-family="Calibri, Calibri_MSFontService, sans-serif" font-size="11" font-weight="400" transform="translate(368.435,488)">system_application</text><text id="text34" font-family="Calibri, Calibri_MSFontService, sans-serif" font-size="11" font-weight="400" transform="translate(455.101,488)">–</text><text id="text35" font-family="Calibri, Calibri_MSFontService, sans-serif" font-size="11" font-weight="400" transform="translate(462.768,488)">v1</text><text id="text36" font-family="Calibri, Calibri_MSFontService, sans-serif" font-size="11" font-weight="400" transform="translate(368.435,501)">Microsoft ID</text><text id="text37" font-family="Calibri, Calibri_MSFontService, sans-serif" font-size="11" font-weight="400" transform="translate(368.435,539)">(</text><text id="text38" font-family="Calibri, Calibri_MSFontService, sans-serif" font-size="11" font-weight="400" transform="translate(371.601,539)">empty</text><text id="text39" font-family="Calibri, Calibri_MSFontService, sans-serif" font-size="11" font-weight="400" transform="translate(399.435,539)">)</text><text id="text40" fill="#a6a6a6" font-family="Calibri, Calibri_MSFontService, sans-serif" font-size="11" font-weight="400" transform="translate(369.04,235)">destinationAppForMigration</text><text id="text41" fill="#a6a6a6" font-family="Calibri, Calibri_MSFontService, sans-serif" font-size="11" font-weight="400" transform="translate(495.207,235)">server</text><text id="text42" fill="#a6a6a6" font-family="Calibri, Calibri_MSFontService, sans-serif" font-size="11" font-weight="400" transform="translate(524.54,235)">config</text><rect id="rect42" width="177" height="100" x="136.5" y="474.5" fill="none" stroke="#ffc000" stroke-dasharray="4 1.333" stroke-linecap="square" stroke-miterlimit="8" stroke-width="1.333"/><rect id="rect43" width="46" height="66" x="144.5" y="495.5" fill="none" stroke="#7030a0" stroke-miterlimit="8" stroke-width="1.333"/><path id="path43" fill="none" fill-rule="evenodd" stroke="#7030a0" stroke-miterlimit="8" stroke-width="1.333" d="m 156.5,521.5 h 20.369"/><path id="path44" fill="none" fill-rule="evenodd" stroke="#7030a0" stroke-miterlimit="8" stroke-width="1.333" d="m 156.5,535.5 h 20.369"/><rect id="rect44" width="46" height="66" x="201.5" y="495.5" fill="none" stroke="#ffc000" stroke-miterlimit="8" stroke-width="1.333"/><path id="path45" fill="none" fill-rule="evenodd" stroke="#ffc000" stroke-miterlimit="8" stroke-width="1.333" d="m 212.5,522.5 h 20.631"/><path id="path46" fill="none" fill-rule="evenodd" stroke="#ffc000" stroke-miterlimit="8" stroke-width="1.333" d="m 212.5,535.5 h 20.631"/><text id="text46" font-family="Calibri, Calibri_MSFontService, sans-serif" font-size="11" font-weight="400" transform="translate(140.16,485)">14 C/AL base</text><text id="text47" font-family="Calibri, Calibri_MSFontService, sans-serif" font-size="11" font-weight="400" transform="translate(150.971,507)">TableA</text><text id="text48" font-family="Calibri, Calibri_MSFontService, sans-serif" font-size="11" font-weight="400" transform="translate(207.88,509)">TableB</text><rect id="rect48" width="46" height="66" x="259.5" y="495.5" fill="none" stroke="#ffc000" stroke-miterlimit="8" stroke-width="1.333"/><path id="path48" fill="none" fill-rule="evenodd" stroke="#ffc000" stroke-miterlimit="8" stroke-width="1.333" d="m 270.5,521.5 h 20.631"/><path id="path49" fill="none" fill-rule="evenodd" stroke="#ffc000" stroke-miterlimit="8" stroke-width="1.333" d="m 270.5,535.5 h 20.631"/><path id="path50" fill="none" fill-rule="evenodd" stroke="#00b050" stroke-miterlimit="8" stroke-width="1.333" d="m 271.5,547.5 h 20.631"/><text id="text50" font-family="Calibri, Calibri_MSFontService, sans-serif" font-size="11" font-weight="400" transform="translate(265.616,509)">TableC</text><text id="text51" font-family="Calibri, Calibri_MSFontService, sans-serif" font-size="11" font-weight="400" transform="translate(369.887,369)">base_application</text><text id="text52" font-family="Calibri, Calibri_MSFontService, sans-serif" font-size="11" font-weight="400" transform="translate(446.387,369)">–</text><text id="text53" font-family="Calibri, Calibri_MSFontService, sans-serif" font-size="11" font-weight="400" transform="translate(454.054,369)">v1</text><text id="text54" font-family="Calibri, Calibri_MSFontService, sans-serif" font-size="11" font-weight="400" transform="translate(369.887,382)">Microsoft ID</text><text id="text55" font-family="Calibri, Calibri_MSFontService, sans-serif" font-size="11" font-weight="400" transform="translate(369.887,420)">(</text><text id="text56" font-family="Calibri, Calibri_MSFontService, sans-serif" font-size="11" font-weight="400" transform="translate(373.054,420)">empty</text><text id="text57" font-family="Calibri, Calibri_MSFontService, sans-serif" font-size="11" font-weight="400" transform="translate(400.887,420)">)</text><text id="text58" font-family="Calibri, Calibri_MSFontService, sans-serif" font-size="11" font-weight="400" transform="translate(606.863,131)">table</text><text id="text59" font-family="Calibri, Calibri_MSFontService, sans-serif" font-size="11" font-weight="400" transform="translate(631.363,131)">migration</text><text id="text60" font-family="Calibri, Calibri_MSFontService, sans-serif" font-size="11" font-weight="400" transform="translate(675.863,131)">extension</text><text id="text61" font-family="Calibri, Calibri_MSFontService, sans-serif" font-size="11" font-weight="400" transform="translate(723.029,131)">-</text><text id="text62" font-family="Calibri, Calibri_MSFontService, sans-serif" font-size="11" font-weight="400" transform="translate(731.029,131)">v2</text><text id="text63" font-family="Calibri, Calibri_MSFontService, sans-serif" font-size="11" font-weight="400" transform="translate(606.863,182)">(</text><text id="text64" font-family="Calibri, Calibri_MSFontService, sans-serif" font-size="11" font-weight="400" transform="translate(610.029,182)">empty</text><text id="text65" font-family="Calibri, Calibri_MSFontService, sans-serif" font-size="11" font-weight="400" transform="translate(637.863,182)">)</text><text id="text66" font-family="Calibri, Calibri_MSFontService, sans-serif" font-size="11" font-weight="400" transform="translate(604.835,368)">BC base_application</text><text id="text67" font-family="Calibri, Calibri_MSFontService, sans-serif" font-size="11" font-weight="400" transform="translate(695.168,368)">–</text><text id="text68" font-family="Calibri, Calibri_MSFontService, sans-serif" font-size="11" font-weight="400" transform="translate(702.835,368)">v24</text><rect id="rect68" width="175" height="68" x="601.5" y="266.5" fill="none" stroke="#767171" stroke-dasharray="4 1.333" stroke-linecap="square" stroke-miterlimit="8" stroke-width="1.333"/><rect id="rect69" width="48" height="38" x="720.5" y="291.5" fill="none" stroke="#00b050" stroke-dasharray="4 1.333" stroke-linecap="square" stroke-miterlimit="8" stroke-width="1.333"/><path id="path69" fill="none" fill-rule="evenodd" stroke="#00b050" stroke-miterlimit="8" stroke-width="1.333" d="m 733.5,312.5 h 20.631"/><text id="text69" font-family="Calibri, Calibri_MSFontService, sans-serif" font-size="11" font-weight="400" transform="translate(608.386,277)">Customization extension</text><text id="text70" font-family="Calibri, Calibri_MSFontService, sans-serif" font-size="11" font-weight="400" transform="translate(717.886,277)">–</text><text id="text71" font-family="Calibri, Calibri_MSFontService, sans-serif" font-size="11" font-weight="400" transform="translate(725.553,277)">v24</text><path id="path71" fill="#a6a6a6" d="M 1.04552e-6,-0.333333 26.8054,-0.333249 V 0.333417 L -1.04552e-6,0.333333 Z M 25.472,-3.99992 l 8,4.000024987 -8,3.999975013 z" transform="matrix(-1,0,0,1,808.972,521.5)"/><path id="path72" fill="#a6a6a6" d="M 1.08238e-6,-0.333333 25.6655,-0.33325 V 0.333417 L -1.08238e-6,0.333333 Z M 24.3322,-3.99992 l 8,4.000024987 -8,3.999975013 z" transform="matrix(-1,0,0,1,808.832,400.5)"/><path id="path73" fill="none" fill-rule="evenodd" stroke="#a6a6a6" stroke-miterlimit="8" stroke-width=".667" d="M 0,0 33.472,1.04987e-4" transform="matrix(-1,0,0,1,807.972,166.5)"/><path id="path74" fill="none" fill-rule="evenodd" stroke="#a6a6a6" stroke-miterlimit="8" stroke-width=".667" d="M 0,0 0.137953,354.727" transform="matrix(1,0,0,-1,808.5,521.227)"/><text id="text74" font-family="Calibri, Calibri_MSFontService, sans-serif" font-size="11" font-weight="400" transform="translate(182.808,623)">Database</text><path id="path75" fill="none" fill-rule="evenodd" stroke="#2f528f" stroke-miterlimit="8" stroke-width="3" d="m 228.5,605.375 c 0,2.692 -11.641,4.875 -26,4.875 -14.359,0 -26,-2.183 -26,-4.875 0,-2.692 11.641,-4.875 26,-4.875 14.359,0 26,2.183 26,4.875 v 29.25 c 0,2.692 -11.641,4.875 -26,4.875 -14.359,0 -26,-2.183 -26,-4.875 v -29.25"/><path id="path76" fill="none" fill-rule="evenodd" stroke="#4472c4" stroke-dasharray="5.333 2 .667 2 .667 2" stroke-miterlimit="8" stroke-width=".667" d="M 136.5,588.5 H 806.111"/><rect id="rect76" width="121" height="28" x="395.5" y="576.5" fill="#fff" stroke="#fff" stroke-miterlimit="8" stroke-width="1.333"/><text id="text76" fill="#4472c4" font-family="Calibri, Calibri_MSFontService, sans-serif" font-size="11" font-weight="400" transform="translate(405.97,594)">Sync and data</text><text id="text77" fill="#4472c4" font-family="Calibri, Calibri_MSFontService, sans-serif" font-size="11" font-weight="400" transform="translate(468.803,594)">upgrade</text><path id="path77" fill="#a6a6a6" d="m 686.833,333.5 v 14.604 h -0.666 V 333.5 Z m 3.667,13.271 -4,8 -4,-8 z"/><rect id="rect77" width="188" height="69" x="365.5" y="265.5" fill="none" stroke="#767171" stroke-dasharray="4 1.333" stroke-linecap="square" stroke-miterlimit="8" stroke-width="1.333"/><text id="text78" font-family="Calibri, Calibri_MSFontService, sans-serif" font-size="11" font-weight="400" transform="translate(376.926,277)">Customization extension</text><text id="text79" font-family="Calibri, Calibri_MSFontService, sans-serif" font-size="11" font-weight="400" transform="translate(486.426,277)">–</text><text id="text80" font-family="Calibri, Calibri_MSFontService, sans-serif" font-size="11" font-weight="400" transform="translate(494.093,277)">v24</text><text id="text81" font-family="Calibri, Calibri_MSFontService, sans-serif" font-size="11" font-weight="400" transform="translate(376.926,303)">(</text><text id="text82" font-family="Calibri, Calibri_MSFontService, sans-serif" font-size="11" font-weight="400" transform="translate(380.093,303)">empty</text><text id="text83" font-family="Calibri, Calibri_MSFontService, sans-serif" font-size="11" font-weight="400" transform="translate(407.926,303)">)</text><path id="path83" fill="#a6a6a6" d="M 1.08238e-6,-0.333333 25.6655,-0.33325 V 0.333417 L -1.08238e-6,0.333333 Z M 24.3322,-3.99992 l 8,4.000024987 -8,3.999975013 z" transform="matrix(-1,0,0,1,808.832,307.5)"/><text id="text84" fill="#ffc000" font-family="Calibri, Calibri_MSFontService, sans-serif" font-size="11" font-weight="400" transform="translate(241.891,612)">TableA</text><text id="text85" fill="#ffc000" font-family="Calibri, Calibri_MSFontService, sans-serif" font-size="11" font-weight="400" transform="translate(241.891,625)">TableB</text><text id="text86" fill="#ffc000" font-family="Calibri, Calibri_MSFontService, sans-serif" font-size="11" font-weight="400" transform="translate(241.891,638)">TableC</text><text id="text87" fill="#00b0f0" font-family="Calibri, Calibri_MSFontService, sans-serif" font-size="11" font-weight="400" transform="translate(424.004,615)">TableA$table_migration_ext_Id</text><text id="text88" fill="#00b0f0" font-family="Calibri, Calibri_MSFontService, sans-serif" font-size="11" font-weight="400" transform="translate(424.004,628)">TableB$table_migration_ext_Id</text><text id="text89" fill="#00b0f0" font-family="Calibri, Calibri_MSFontService, sans-serif" font-size="11" font-weight="400" transform="translate(424.004,641)">TableC$table_migration_ext_Id</text><text id="text90" fill="#7030a0" font-family="Calibri, Calibri_MSFontService, sans-serif" font-size="11" font-weight="400" transform="translate(661.73,615)">TableA$system_application_Id</text><text id="text91" fill="#ffc000" font-family="Calibri, Calibri_MSFontService, sans-serif" font-size="11" font-weight="400" transform="translate(661.73,628)">TableB$base_application_Id</text><text id="text92" fill="#ffc000" font-family="Calibri, Calibri_MSFontService, sans-serif" font-size="11" font-weight="400" transform="translate(661.73,641)">TableC</text><text id="text93" fill="#ffc000" font-family="Calibri, Calibri_MSFontService, sans-serif" font-size="11" font-weight="400" transform="translate(691.23,641)">$</text><text id="text94" fill="#ffc000" font-family="Calibri, Calibri_MSFontService, sans-serif" font-size="11" font-weight="400" transform="translate(698.896,641)">base_application_Id</text><text id="text95" fill="#afabab" font-family="Calibri, Calibri_MSFontService, sans-serif" font-size="11" font-weight="400" transform="translate(661.73,653)">TableExtC$customization_application_Id</text><text id="text96" font-family="Calibri, Calibri_MSFontService, sans-serif" font-size="11" font-weight="400" transform="translate(365.884,624)">Database</text><path id="path96" fill="none" fill-rule="evenodd" stroke="#2f528f" stroke-miterlimit="8" stroke-width="3" d="m 411.5,607.25 c 0,2.623 -11.641,4.75 -26,4.75 -14.359,0 -26,-2.127 -26,-4.75 0,-2.623 11.641,-4.75 26,-4.75 14.359,0 26,2.127 26,4.75 v 28.5 c 0,2.623 -11.641,4.75 -26,4.75 -14.359,0 -26,-2.127 -26,-4.75 v -28.5"/><text id="text97" font-family="Calibri, Calibri_MSFontService, sans-serif" font-size="11" font-weight="400" transform="translate(605.281,627)">Database</text><path id="path97" fill="none" fill-rule="evenodd" stroke="#2f528f" stroke-miterlimit="8" stroke-width="3" d="m 650.5,609.375 c 0,2.692 -11.417,4.875 -25.5,4.875 -14.083,0 -25.5,-2.183 -25.5,-4.875 0,-2.692 11.417,-4.875 25.5,-4.875 14.083,0 25.5,2.183 25.5,4.875 v 29.25 c 0,2.692 -11.417,4.875 -25.5,4.875 -14.083,0 -25.5,-2.183 -25.5,-4.875 v -29.25"/></g></svg>