<svg xmlns="http://www.w3.org/2000/svg" width="96" height="96" fill="none" viewBox="0 0 96 96"><g clip-path="url(#clip0)"><mask id="mask0" width="96" height="90" x="0" y="6" mask-type="alpha" maskUnits="userSpaceOnUse"><path fill="url(#paint0_linear)" fill-rule="evenodd" d="M21.2259 8.07925C21.9277 6.79719 23.2729 6 24.7345 6H69.9076C71.3345 6 72.6533 6.76005 73.3686 7.99462L95.3436 45.9201C96.051 47.1409 96.0629 48.644 95.3749 49.8759L77.6104 81.6848C76.1545 84.2916 72.4593 84.4423 70.7961 81.9626L65.67 74.32L51.2296 94.0806C49.6317 96.2672 46.3683 96.2672 44.7704 94.0806L30.2519 74.2131L25.0521 81.9583C23.3869 84.4387 19.6892 84.2846 18.2361 81.6743L0.505011 49.8216C-0.163444 48.6208 -0.168606 47.1609 0.491337 45.9554L21.2259 8.07925Z" clip-rule="evenodd"/></mask><g mask="url(#mask0)"><path fill="url(#paint1_linear)" d="M21.2259 8.07925C21.9277 6.79719 23.2729 6 24.7345 6H69.9076C71.3345 6 72.6533 6.76005 73.3686 7.99462L95.3436 45.9201C96.051 47.1409 96.0628 48.644 95.3749 49.8759L77.6104 81.6848C76.1545 84.2916 72.4593 84.4423 70.7961 81.9626L51.2537 52.8265C49.6695 50.4647 46.1959 50.4639 44.6107 52.8251L25.0521 81.9583C23.3869 84.4387 19.6892 84.2846 18.2361 81.6743L0.505011 49.8216C-0.163444 48.6208 -0.168606 47.1609 0.491337 45.9554L21.2259 8.07925Z"/><g filter="url(#filter0_f)"><path fill="#000" fill-opacity=".18" d="M25.9519 29.039C37.7096 15.8891 58.2904 15.8891 70.0481 29.039V29.039C79.3506 39.4432 80.114 54.9345 71.8794 66.2029L51.2296 94.4606C49.6317 96.6472 46.3683 96.6472 44.7704 94.4606L24.1206 66.2029C15.886 54.9345 16.6494 39.4432 25.9519 29.039V29.039Z"/></g><g filter="url(#filter1_f)"><path fill="#000" fill-opacity=".2" d="M25.9519 30.659C37.7096 17.5091 58.2904 17.5091 70.0481 30.659V30.659C79.3506 41.0632 80.114 56.5545 71.8794 67.8229L51.2296 96.0806C49.6317 98.2672 46.3683 98.2672 44.7704 96.0806L24.1206 67.8229C15.886 56.5545 16.6494 41.0632 25.9519 30.659V30.659Z"/></g><path fill="url(#paint2_linear)" d="M25.9519 28.659C37.7096 15.5091 58.2904 15.5091 70.0481 28.659V28.659C79.3506 39.0632 80.114 54.5545 71.8794 65.8229L51.2296 94.0806C49.6317 96.2672 46.3683 96.2672 44.7704 94.0806L24.1206 65.8229C15.886 54.5545 16.6494 39.0632 25.9519 28.659V28.659Z"/><circle cx="48" cy="48" r="18" fill="url(#paint3_linear)"/></g></g><defs><filter id="filter0_f" width="60.672" height="78.444" x="17.664" y="18.417" color-interpolation-filters="sRGB" filterUnits="userSpaceOnUse"><feFlood flood-opacity="0" result="BackgroundImageFix"/><feBlend in="SourceGraphic" in2="BackgroundImageFix" mode="normal" result="shape"/><feGaussianBlur result="effect1_foregroundBlur" stdDeviation=".38"/></filter><filter id="filter1_f" width="67.152" height="84.924" x="14.424" y="16.797" color-interpolation-filters="sRGB" filterUnits="userSpaceOnUse"><feFlood flood-opacity="0" result="BackgroundImageFix"/><feBlend in="SourceGraphic" in2="BackgroundImageFix" mode="normal" result="shape"/><feGaussianBlur result="effect1_foregroundBlur" stdDeviation="2"/></filter><linearGradient id="paint0_linear" x1="0" x2="85.942" y1="6" y2="104.403" gradientUnits="userSpaceOnUse"><stop stop-color="#FFED80"/><stop offset="1" stop-color="#FCD680"/></linearGradient><linearGradient id="paint1_linear" x1="8.421" x2="110.556" y1="-1.092" y2="51.325" gradientUnits="userSpaceOnUse"><stop stop-color="#F5B240"/><stop offset=".554" stop-color="#EA8200"/></linearGradient><linearGradient id="paint2_linear" x1="10" x2="108.546" y1="4" y2="54.526" gradientUnits="userSpaceOnUse"><stop stop-color="#FDD340"/><stop offset="1" stop-color="#F9AE00"/></linearGradient><linearGradient id="paint3_linear" x1="30" x2="64.718" y1="30" y2="67.197" gradientUnits="userSpaceOnUse"><stop stop-color="#FFED80"/><stop offset="1" stop-color="#FCD680"/></linearGradient><clipPath id="clip0"><rect width="96" height="96" fill="#fff"/></clipPath></defs></svg>